<?xml version="1.0" encoding="UTF-8"?>
<svg id="Capa_2" xmlns="http://www.w3.org/2000/svg" version="1.1" viewBox="0 0 248.9 36.6">
  <!-- Generator: Adobe Illustrator 30.4.0, SVG Export Plug-In . SVG Version: 2.1.4 Build 226)  -->
  <defs>
    <style>
      .st0 {
        fill: #dae4f7;
      }

      .st1 {
        fill: #fff;
      }
    </style>
  </defs>
  <g id="Capa_1-2">
    <g>
      <g>
        <path class="st0" d="M55.3.1h-12.1C43.2,0,41.2,3.3,41.2,3.3h-8.2c0,0-13.9,29.1-13.9,29.1L4.9,3.2h5.6s2.3,3.1,2.3,3.1h7.5l4.8,9.9,1.7-3.2-4.6-9.6h-7.9L12,0H0s17.6,36.3,17.6,36.3c1,.2,2.1.2,3-.1l14.4-29.9h7.6s2.2-3.1,2.2-3.1h5.6s-14.1,29-14.1,29l-6-12.3-1.7,3.5,4.8,10.1h-9.6c0,0-1.6,3.1-1.6,3.1h15.4S55.3.1,55.3.1Z"/>
        <path class="st0" d="M55.3.1l-17.7,36.4h-15.4s1.6-3.1,1.6-3.1h9.6c0,0-4.9-10-4.9-10l1.7-3.5,6.1,12.3L50.4,3.2h-5.6s-2.2,3.2-2.2,3.2h-7.6s-14.4,29.9-14.4,29.9c-.8.3-2,.4-3,.1L0,0h12s2.4,3.3,2.4,3.3h8l4.6,9.6-1.7,3.2-4.8-9.9h-7.5l-2.3-3.1h-5.6s14.2,29.2,14.2,29.2L33,3.4h8.2C41.1,3.3,43.2,0,43.2,0h12.1Z"/>
      </g>
      <g>
        <path class="st1" d="M62.8,10.4h3.5l3.2,11.2c.7,2.5,1.2,4.6,2,7h.1c.8-2.5,1.3-4.6,2-7l3.2-11.2h3.4l-6.7,21.5h-3.9l-6.8-21.5h0Z"/>
        <path class="st1" d="M90.4,18.5h-7.2v-2.6h10.4v16.1h-3.3v-13.5ZM89.3,10.4c0-1.4,1-2.3,2.4-2.3s2.4.9,2.4,2.3-1,2.3-2.4,2.3-2.4-.9-2.4-2.3Z"/>
        <path class="st1" d="M100.3,15.9h2.7l.3,2.6h.1c1.6-1.6,3.4-2.9,5.9-2.9,3.8,0,5.5,2.3,5.5,6.5v10h-3.3v-9.5c0-2.8-.9-4.1-3.3-4.1s-2.9.9-4.6,2.6v11.1h-3.3V15.9h0Z"/>
        <path class="st1" d="M120,23.9c0-5.4,4.2-8.4,9-8.4s4.6,1,5.9,2.3l-1.6,2.1c-1.3-1.1-2.6-1.7-4.2-1.7-3.4,0-5.8,2.3-5.8,5.8s2.3,5.7,5.7,5.7,3.5-.9,4.8-1.9l1.4,2.1c-1.8,1.6-4.1,2.5-6.4,2.5-5,0-8.8-3.1-8.8-8.4Z"/>
        <path class="st1" d="M139.9,25.8v-10h3.3v9.5c0,2.8.9,4.1,3.3,4.1s2.9-.7,4.5-2.6v-11h3.3v16.1h-2.7l-.3-2.7h-.1c-1.6,1.8-3.4,3.1-5.8,3.1-3.8,0-5.5-2.3-5.5-6.5Z"/>
        <path class="st1" d="M163,26.3v-15.1h-5.5v-2.6h8.8v17.9c0,2.2,1.3,3.1,3,3.1s1.8-.2,2.9-.7l.8,2.4c-1.5.6-2.6.9-4.4.9-3.6,0-5.5-2.1-5.5-6h0Z"/>
        <path class="st1" d="M175.5,27.7c0-3.6,3.3-5.4,11.4-6-.1-2-1.2-3.6-4-3.6s-3.9.9-5.4,1.8l-1.2-2.2c1.8-1.1,4.5-2.3,7.3-2.3,4.4,0,6.7,2.5,6.7,6.8v9.7h-2.7l-.3-2.1h-.1c-1.7,1.3-3.9,2.5-6.1,2.5s-5.4-1.8-5.4-4.6h0ZM186.9,27.5v-3.8c-6.3.5-8.2,1.7-8.2,3.6s1.4,2.3,3.2,2.3,3.4-.8,5-2.2Z"/>
        <path class="st1" d="M195.3,15.9h2.7l.3,2.6h.1c1.6-1.6,3.4-2.9,5.9-2.9,3.8,0,5.5,2.3,5.5,6.5v10h-3.3v-9.5c0-2.8-.9-4.1-3.3-4.1s-2.9.9-4.6,2.6v11.1h-3.3V15.9h0Z"/>
        <path class="st1" d="M218.3,25.6v-7.1h-4.4v-2.4l4.6-.2.4-5.1h2.7v5.1h7.6v2.6h-7.6v7.1c0,2.8,1,4.1,3.9,4.1s2.6-.3,3.7-.7l.7,2.4c-1.4.5-3,.9-5.1.9-4.8,0-6.4-2.7-6.4-6.8h0Z"/>
        <path class="st1" d="M233.3,23.9c0-5.2,3.9-8.4,8.2-8.4s7.4,3.1,7.4,7.6,0,1.4-.1,1.8h-13.2v-2.4h11.2l-.7.8c0-3.5-1.7-5.2-4.4-5.2s-5.1,2.1-5.1,5.9,2.5,5.9,5.9,5.9,3.2-.5,4.7-1.4l1.1,2.1c-1.6,1.1-3.8,1.9-6.2,1.9-4.9,0-8.7-3.1-8.7-8.5h0Z"/>
      </g>
    </g>
  </g>
</svg>