<?xml version="1.0" encoding="UTF-8"?>
<svg id="Capa_2" data-name="Capa 2" xmlns="http://www.w3.org/2000/svg" viewBox="0 0 248.93 36.62">
  <defs>
    <style>
      .cls-1 {
        fill: #29235c;
      }

      .cls-2 {
        fill: #1d71b8;
      }
    </style>
  </defs>
  <g id="Capa_1-2" data-name="Capa 1">
    <g>
      <g>
        <path class="cls-1" d="M55.28.13L43.2,0l-2.05,3.3-8.16.1-13.88,28.96L4.94,3.23l5.63-.03,2.28,3.1h7.53s4.8,9.89,4.8,9.89l1.68-3.25-4.59-9.6h-7.95s-2.36-3.34-2.36-3.34L0,.03l17.65,36.3c.97.25,2.15.23,2.95-.11l14.37-29.9,7.57.04,2.23-3.15,5.62-.03-14.13,29.07-6.05-12.29-1.66,3.45,4.85,10.12-9.61-.08-1.58,3.16,15.41-.05L55.28.13Z"/>
        <path class="cls-1" d="M55.28.13l-17.66,36.44-15.41.05,1.58-3.16,9.61.08-4.85-10.12,1.66-3.45,6.05,12.29L50.39,3.18l-5.62.03-2.23,3.15-7.57-.04-14.37,29.9c-.8.34-1.98.36-2.95.11L0,.03l11.96-.03,2.36,3.35h7.95s4.59,9.59,4.59,9.59l-1.68,3.25-4.8-9.91h-7.53s-2.28-3.09-2.28-3.09l-5.63.03,14.16,29.13L32.98,3.4l8.16-.1L43.2,0l12.08.13Z"/>
      </g>
      <g>
        <path class="cls-2" d="M62.76,10.38h3.52l3.22,11.21c.73,2.48,1.23,4.58,1.98,7.04h.13c.75-2.46,1.29-4.56,1.98-7.04l3.21-11.21h3.38l-6.74,21.52h-3.9l-6.79-21.52Z"/>
        <path class="cls-2" d="M90.38,18.46h-7.18v-2.61h10.45v16.06h-3.27v-13.45ZM89.31,10.38c0-1.38,1.03-2.34,2.44-2.34s2.44.95,2.44,2.34-1.03,2.33-2.44,2.33-2.44-.91-2.44-2.33Z"/>
        <path class="cls-2" d="M100.31,15.85h2.68l.26,2.56h.13c1.61-1.65,3.44-2.95,5.92-2.95,3.76,0,5.47,2.31,5.47,6.49v9.96h-3.27v-9.53c0-2.8-.94-4.1-3.32-4.1-1.75,0-2.92.86-4.58,2.56v11.08h-3.27V15.85Z"/>
        <path class="cls-2" d="M119.99,23.91c0-5.38,4.16-8.45,9.04-8.45,2.59,0,4.56,1.01,5.89,2.3l-1.57,2.07c-1.3-1.06-2.62-1.68-4.17-1.68-3.45,0-5.83,2.3-5.83,5.76s2.34,5.71,5.74,5.71c1.9,0,3.49-.85,4.76-1.89l1.41,2.11c-1.82,1.6-4.11,2.47-6.44,2.47-5.03,0-8.83-3.08-8.83-8.4Z"/>
        <path class="cls-2" d="M139.92,25.81v-9.96h3.27v9.53c0,2.78.93,4.1,3.34,4.1,1.68,0,2.89-.74,4.5-2.65v-10.98h3.27v16.06h-2.7l-.26-2.68h-.13c-1.57,1.82-3.4,3.07-5.83,3.07-3.76,0-5.46-2.31-5.46-6.49Z"/>
        <path class="cls-2" d="M163.01,26.29v-15.07h-5.52v-2.61h8.79v17.88c0,2.23,1.26,3.13,3.03,3.13.88,0,1.81-.21,2.88-.67l.79,2.43c-1.53.61-2.61.94-4.43.94-3.6,0-5.54-2.14-5.54-6.02Z"/>
        <path class="cls-2" d="M175.48,27.67c0-3.6,3.27-5.37,11.37-5.98-.12-1.99-1.18-3.58-4.04-3.58-1.94,0-3.86.89-5.43,1.81l-1.25-2.18c1.8-1.11,4.47-2.28,7.26-2.28,4.43,0,6.73,2.54,6.73,6.78v9.67h-2.7l-.26-2.08h-.11c-1.72,1.34-3.95,2.48-6.15,2.48-3.07,0-5.43-1.81-5.43-4.63ZM186.85,27.54v-3.76c-6.31.45-8.18,1.72-8.18,3.64,0,1.61,1.45,2.28,3.17,2.28s3.35-.81,5.01-2.16Z"/>
        <path class="cls-2" d="M195.28,15.85h2.68l.26,2.56h.13c1.61-1.65,3.44-2.95,5.92-2.95,3.75,0,5.47,2.31,5.47,6.49v9.96h-3.27v-9.53c0-2.8-.94-4.1-3.32-4.1-1.75,0-2.92.86-4.58,2.56v11.08h-3.27V15.85Z"/>
        <path class="cls-2" d="M218.28,25.56v-7.09h-4.43v-2.44l4.55-.17.43-5.09h2.72v5.09h7.58v2.61h-7.58v7.1c0,2.76.98,4.1,3.88,4.1,1.41,0,2.56-.28,3.66-.69l.67,2.39c-1.45.5-3.03.94-5.08.94-4.8,0-6.4-2.72-6.4-6.75Z"/>
        <path class="cls-2" d="M233.3,23.85c0-5.23,3.94-8.4,8.24-8.4,4.71,0,7.39,3.1,7.39,7.58,0,.69-.08,1.36-.15,1.78h-13.21v-2.4h11.17l-.71.8c0-3.48-1.68-5.22-4.41-5.22s-5.12,2.08-5.12,5.86,2.47,5.89,5.93,5.89c1.8,0,3.25-.54,4.69-1.41l1.15,2.07c-1.65,1.09-3.79,1.91-6.25,1.91-4.87,0-8.72-3.1-8.72-8.45Z"/>
      </g>
    </g>
  </g>
</svg>